<svg width="200" height="200" viewBox="0 0 200 200" fill="none" xmlns="http://www.w3.org/2000/svg">
<g clip-path="url(#clip0_1837_22213)">
<g filter="url(#filter0_dd_1837_22213)">
<path fill-rule="evenodd" clip-rule="evenodd" d="M89.6806 42.5791C88.5757 42.5913 87.4635 42.7306 86.3521 42.9979C80.5812 41.4499 75.1247 43.3892 70.8954 47.6177L70.893 47.6201C66.8484 51.6663 64.8224 56.8523 66.1444 62.5097L61.4785 70.5649L27.9009 91.9066C26.1925 92.9929 24.7466 94.3627 23.5979 95.9253C23.0066 96.6738 22.4622 97.4895 21.9705 98.3757L14.3398 112.144C12.1429 116.108 11.2016 121.615 12.8007 127.342C14.3649 132.944 18.5642 138.553 23.4902 141.397L55.0856 159.639C63.6041 164.556 70.7544 162.593 75.7039 158.478C75.6998 158.481 103.008 141.127 103.008 141.127L117.815 155.348C121.848 160.36 128.472 163.703 137.8 160.563C137.798 160.564 172.378 148.931 172.378 148.931C177.767 147.119 182.994 142.452 185.636 137.268C188.336 131.97 188.502 126.383 187.131 122.063L186.524 120.15C188.268 117.362 189.051 114.02 188.974 110.45C188.837 104.114 185.807 98.5159 179.793 95.6839C179.38 94.8949 178.899 94.1367 178.349 93.4109C174.827 88.7661 170.063 86.4509 164.47 86.702L119.218 43.2361L118.945 42.9736L118.661 42.7112L118.332 42.4309C114.016 38.6876 107.626 36.5426 99.8848 39.1469L89.6806 42.5791Z" fill="white"/>
</g>
<path fill-rule="evenodd" clip-rule="evenodd" d="M90.876 54.8377C89.7548 54.5388 88.577 54.7065 87.4429 55.3958C87.0314 55.6462 86.6321 55.9159 86.2254 56.1759C85.9022 55.9791 85.592 55.7547 85.2728 55.5465C83.101 54.1322 80.9414 54.542 79.3805 56.103L79.3796 56.1038C77.8746 57.6097 77.4031 59.6827 78.764 61.8771C78.986 62.2359 79.2168 62.5891 79.459 62.9342C79.2549 63.2283 79.05 63.5458 78.8418 63.8617L78.841 63.8634C78.3825 64.5632 78.1249 65.2591 78.0309 65.9298L70.3913 79.1183L34.3373 102.034C33.8659 102.334 33.4738 102.721 33.1741 103.163C32.9141 103.471 32.6759 103.814 32.4661 104.193L24.8346 117.961C23.9475 119.563 23.7118 121.802 24.3583 124.115C25.1189 126.84 27.093 129.621 29.4899 131.004L61.0854 149.246C64.1514 151.016 66.7258 150.393 68.4383 148.877C68.4342 148.88 104.524 125.946 104.524 125.946L126.838 147.376C128.215 149.199 130.616 150.319 133.972 149.19L168.551 137.557C171.174 136.676 173.659 134.341 174.944 131.82C176.035 129.679 176.247 127.438 175.693 125.692L172.532 115.722L173.061 115.61C175.796 114.983 177.026 113.026 176.977 110.708C176.927 108.437 175.57 106.522 172.939 105.98H172.937C172.364 105.861 171.788 105.755 171.215 105.635C170.732 105.534 170.35 105.309 170.159 104.847L170.159 104.845C169.89 104.19 169.87 103.473 169.715 102.789C169.541 102.019 169.265 101.289 168.781 100.654C167.63 99.1404 166.024 98.4778 164.131 98.7735C162.952 98.9582 161.964 99.4555 161.247 100.246L110.835 51.8227L110.845 51.834C109.27 50.282 106.755 49.4962 103.71 50.5201L90.876 54.8377Z" fill="url(#paint0_linear_1837_22213)"/>
<path fill-rule="evenodd" clip-rule="evenodd" d="M90.876 54.8377C89.7548 54.5388 88.577 54.7065 87.4429 55.3958C87.0314 55.6462 86.6321 55.9159 86.2254 56.1759C85.9022 55.9791 85.592 55.7547 85.2728 55.5465C83.101 54.1322 80.9414 54.542 79.3805 56.103L79.3796 56.1038C77.8746 57.6097 77.4031 59.6827 78.764 61.8771C78.986 62.2359 79.2168 62.5891 79.459 62.9342C79.2549 63.2283 79.05 63.5458 78.8418 63.8617L78.841 63.8634C78.3825 64.5632 78.1249 65.2591 78.0309 65.9298L70.3913 79.1183L34.3373 102.034C33.8659 102.334 33.4738 102.721 33.1741 103.163C32.9141 103.471 32.6759 103.814 32.4661 104.193L24.8346 117.961C23.9475 119.563 23.7118 121.802 24.3583 124.115C25.1189 126.84 27.093 129.621 29.4899 131.004L61.0854 149.246C64.1514 151.016 66.7258 150.393 68.4383 148.877C68.4342 148.88 104.524 125.946 104.524 125.946L126.838 147.376C128.215 149.199 130.616 150.319 133.972 149.19L168.551 137.557C171.174 136.676 173.659 134.341 174.944 131.82C176.035 129.679 176.247 127.438 175.693 125.692L172.532 115.722L173.061 115.61C175.796 114.983 177.026 113.026 176.977 110.708C176.927 108.437 175.57 106.522 172.939 105.98H172.937C172.364 105.861 171.788 105.755 171.215 105.635C170.732 105.534 170.35 105.309 170.159 104.847L170.159 104.845C169.89 104.19 169.87 103.473 169.715 102.789C169.541 102.019 169.265 101.289 168.781 100.654C167.63 99.1404 166.024 98.4778 164.131 98.7735C162.952 98.9582 161.964 99.4555 161.247 100.246L110.835 51.8227L110.845 51.834C109.27 50.282 106.755 49.4962 103.71 50.5201L90.876 54.8377Z" fill="url(#paint1_linear_1837_22213)"/>
<path d="M104.476 62.5276C105.18 61.2582 106.651 61.0435 108.264 61.9743L123.335 70.6751C124.947 71.6067 126.418 73.52 127.122 75.6018L134.753 98.1821C135.445 100.229 135.076 101.828 134.092 102.416C133.47 102.789 132.6 102.757 131.597 102.177L100.002 83.9357C97.4127 82.4411 95.7157 78.3342 96.8449 76.2961L104.476 62.5276Z" fill="url(#paint2_linear_1837_22213)"/>
<path d="M131.596 102.177L100.001 83.9357C97.412 82.4412 95.7149 78.3342 96.8442 76.2961L104.476 62.5276C104.659 62.1979 104.893 61.9395 105.167 61.754L36.4829 105.41L65.3079 146.116L65.6449 145.913L134.091 102.416C133.469 102.789 132.599 102.757 131.596 102.177Z" fill="url(#paint3_linear_1837_22213)"/>
<path d="M60.1797 90.0532L85.8965 102.714L96.6864 125.892L104.99 120.615L74.1377 90.7482C70.6391 87.3614 65.2741 86.8154 61.1647 89.427L60.1797 90.0532Z" fill="url(#paint4_radial_1837_22213)"/>
<path d="M35.9647 106.132C36.6686 104.863 38.1397 104.647 39.7525 105.579L54.8228 114.28C56.4356 115.211 57.9067 117.124 58.6098 119.206L66.2413 141.787C67.3705 145.129 65.6743 147.276 63.0854 145.782L31.49 127.54C28.901 126.046 27.204 121.939 28.3332 119.9L35.9647 106.132Z" fill="url(#paint5_linear_1837_22213)"/>
<path d="M108.59 55.6032C108.151 54.2196 106.752 53.7182 104.987 54.312L88.4931 59.86C86.7272 60.4538 84.907 62.0383 83.8062 63.9403L71.8595 84.5651C70.7764 86.4347 70.821 88.0751 71.6691 88.8462C72.2062 89.3347 73.0648 89.4748 74.1633 89.1054L108.742 77.4731C111.576 76.5204 114.051 72.8298 113.347 70.6086L108.59 55.6032Z" fill="url(#paint6_linear_1837_22213)"/>
<path d="M74.1631 89.1054L108.742 77.473C111.575 76.5204 114.051 72.8298 113.347 70.6086L108.59 55.6032C108.475 55.2443 108.297 54.9446 108.064 54.7081L166.758 111.086L130.451 145.286L130.161 145.021L71.6689 88.8462C72.206 89.3347 73.0647 89.4748 74.1631 89.1054Z" fill="url(#paint7_linear_1837_22213)"/>
<path d="M131.548 144.254L142.899 119.098C143.925 116.823 143.344 114.146 141.468 112.501L115.254 89.5234C113.194 87.7178 110.221 87.4027 107.829 88.7361L84.8716 101.526L130.162 145.021L130.452 145.286L131.548 144.254Z" fill="#FF9B8B" fill-opacity="0.2"/>
<path d="M167.123 111.896C166.684 110.513 165.284 110.011 163.519 110.605L147.026 116.153C145.26 116.747 143.44 118.331 142.339 120.233L130.392 140.858C128.624 143.911 129.863 146.352 132.696 145.399L167.275 133.766C170.109 132.814 172.584 129.123 171.88 126.902L167.123 111.896Z" fill="url(#paint8_linear_1837_22213)"/>
<path d="M58.5187 130C57.7263 130.013 57.1525 129.483 56.9568 128.538C56.7678 127.628 56.5693 126.719 56.4073 125.805C55.7188 121.93 52.9446 119.224 49.0081 118.541C48.1117 118.384 47.2194 118.201 46.3338 117.993C45.4698 117.79 45 117.238 45 116.505C45 115.724 45.5265 115.157 46.4242 114.968C47.6244 114.714 48.8366 114.514 50.0179 114.195C53.5413 113.245 55.5933 110.888 56.3763 107.369C56.626 106.245 56.8393 105.113 57.112 103.995C57.2538 103.413 57.7114 103.109 58.2852 103.02C58.8656 102.93 59.353 103.144 59.7053 103.61C59.924 103.895 59.9834 104.25 60.0617 104.597C60.4019 106.098 60.5477 107.652 61.1377 109.088C62.3513 112.045 64.6044 113.746 67.6945 114.394C68.6571 114.595 69.625 114.773 70.5889 114.972C71.4583 115.151 71.9834 115.716 71.9996 116.466C72.0158 117.219 71.5379 117.79 70.6483 117.996C69.544 118.248 68.4222 118.421 67.3233 118.695C63.4137 119.671 61.2268 122.239 60.5113 126.148C60.3641 126.953 60.2035 127.755 60.0361 128.554C59.843 129.48 59.3057 129.985 58.5187 130Z" fill="white"/>
<path d="M164.889 118.915C164.413 118.924 164.069 118.604 163.952 118.037C163.838 117.491 163.719 116.947 163.622 116.398C163.209 114.072 161.544 112.449 159.182 112.039C158.644 111.945 158.109 111.835 157.577 111.71C157.059 111.589 156.777 111.257 156.777 110.817C156.777 110.348 157.093 110.008 157.632 109.895C158.352 109.742 159.079 109.623 159.788 109.431C161.902 108.861 163.133 107.447 163.603 105.335C163.753 104.661 163.881 103.982 164.045 103.311C164.13 102.961 164.404 102.78 164.749 102.726C165.097 102.671 165.389 102.8 165.601 103.08C165.732 103.251 165.768 103.464 165.815 103.672C166.019 104.573 166.105 105.505 166.46 106.367C167.189 108.142 168.54 109.162 170.395 109.55C170.972 109.671 171.553 109.778 172.131 109.897C172.653 110.005 172.968 110.343 172.978 110.794C172.988 111.246 172.701 111.589 172.167 111.712C171.504 111.863 170.831 111.967 170.172 112.131C167.826 112.717 166.514 114.258 166.084 116.604C165.996 117.086 165.9 117.568 165.799 118.047C165.683 118.604 165.361 118.906 164.889 118.915Z" fill="white"/>
<path d="M82.2166 66.9545C81.9769 66.7236 81.9639 66.3956 82.1867 66.0561C82.4005 65.7297 82.612 65.4016 82.8347 65.0817C83.7817 63.7264 83.7614 62.0982 82.795 60.7268C82.5747 60.4141 82.3649 60.0941 82.1632 59.7693C81.9671 59.4526 81.9914 59.1496 82.2085 58.9317C82.441 58.6992 82.7659 58.6871 83.0891 58.8977C83.5208 59.1788 83.9404 59.4793 84.3852 59.7361C85.7137 60.5 87.0235 60.4093 88.3018 59.5968C88.71 59.3376 89.1086 59.0646 89.5217 58.8134C89.7372 58.6822 89.9632 58.7284 90.16 58.8726C90.3593 59.0176 90.4403 59.2258 90.4071 59.4688C90.3869 59.6186 90.2994 59.7418 90.22 59.8681C89.8749 60.4149 89.4561 60.9196 89.205 61.5215C88.6874 62.7608 88.851 63.9346 89.5768 65.0452C89.8028 65.3911 90.0377 65.7313 90.2645 66.0764C90.4695 66.3875 90.4581 66.7115 90.2402 66.9391C90.0207 67.1675 89.7088 67.1951 89.384 66.9918C88.9814 66.739 88.5966 66.4571 88.1892 66.2125C86.7376 65.3409 85.3256 65.4543 83.9518 66.4029C83.6691 66.5981 83.3839 66.7884 83.0964 66.9764C82.7634 67.1935 82.4548 67.1837 82.2166 66.9545Z" fill="white"/>
</g>
<defs>
<filter id="filter0_dd_1837_22213" x="0" y="30" width="200.979" height="148.544" filterUnits="userSpaceOnUse" color-interpolation-filters="sRGB">
<feFlood flood-opacity="0" result="BackgroundImageFix"/>
<feColorMatrix in="SourceAlpha" type="matrix" values="0 0 0 0 0 0 0 0 0 0 0 0 0 0 0 0 0 0 127 0" result="hardAlpha"/>
<feMorphology radius="4" operator="erode" in="SourceAlpha" result="effect1_dropShadow_1837_22213"/>
<feOffset dy="4"/>
<feGaussianBlur stdDeviation="8"/>
<feColorMatrix type="matrix" values="0 0 0 0 0.0196078 0 0 0 0 0.121569 0 0 0 0 0.305882 0 0 0 0.12 0"/>
<feBlend mode="normal" in2="BackgroundImageFix" result="effect1_dropShadow_1837_22213"/>
<feColorMatrix in="SourceAlpha" type="matrix" values="0 0 0 0 0 0 0 0 0 0 0 0 0 0 0 0 0 0 127 0" result="hardAlpha"/>
<feMorphology radius="2" operator="erode" in="SourceAlpha" result="effect2_dropShadow_1837_22213"/>
<feOffset dy="2"/>
<feGaussianBlur stdDeviation="5"/>
<feColorMatrix type="matrix" values="0 0 0 0 0.0196078 0 0 0 0 0.121569 0 0 0 0 0.305882 0 0 0 0.08 0"/>
<feBlend mode="normal" in2="effect1_dropShadow_1837_22213" result="effect2_dropShadow_1837_22213"/>
<feBlend mode="normal" in="SourceGraphic" in2="effect2_dropShadow_1837_22213" result="shape"/>
</filter>
<linearGradient id="paint0_linear_1837_22213" x1="13.2437" y1="125.729" x2="194.621" y2="95.6393" gradientUnits="userSpaceOnUse">
<stop offset="0.0190149" stop-color="#EBECEF"/>
<stop offset="0.641097" stop-color="#DBDBE1"/>
<stop offset="1" stop-color="#D3D4DC"/>
</linearGradient>
<linearGradient id="paint1_linear_1837_22213" x1="23.9907" y1="136.117" x2="176.978" y2="136.117" gradientUnits="userSpaceOnUse">
<stop stop-color="#153BFF"/>
<stop offset="1" stop-color="#FF33CC"/>
</linearGradient>
<linearGradient id="paint2_linear_1837_22213" x1="59.9752" y1="85.9687" x2="96.2559" y2="142.845" gradientUnits="userSpaceOnUse">
<stop stop-color="#FFB088"/>
<stop offset="0.35" stop-color="#FFDA94"/>
<stop offset="0.54" stop-color="#FFBA81"/>
<stop offset="0.71" stop-color="#FFA283"/>
<stop offset="1" stop-color="#FF70B5"/>
</linearGradient>
<linearGradient id="paint3_linear_1837_22213" x1="59.9745" y1="85.9687" x2="96.2552" y2="142.845" gradientUnits="userSpaceOnUse">
<stop stop-color="#FFB088"/>
<stop offset="0.35" stop-color="#FFDA94"/>
<stop offset="0.54" stop-color="#FFBA81"/>
<stop offset="0.71" stop-color="#FFA283"/>
<stop offset="1" stop-color="#FF70B5"/>
</linearGradient>
<radialGradient id="paint4_radial_1837_22213" cx="0" cy="0" r="1" gradientUnits="userSpaceOnUse" gradientTransform="translate(87.1116 103.119) rotate(-154.204) scale(26.9914 29.558)">
<stop stop-color="#FF6E57" stop-opacity="0.3"/>
<stop offset="1" stop-color="#FF6E57" stop-opacity="0"/>
</radialGradient>
<linearGradient id="paint5_linear_1837_22213" x1="66.5971" y1="105.005" x2="-44.9272" y2="214.362" gradientUnits="userSpaceOnUse">
<stop stop-color="#FFE2AD"/>
<stop offset="0.32" stop-color="#FFB661"/>
<stop offset="1" stop-color="#FF70DB"/>
</linearGradient>
<linearGradient id="paint6_linear_1837_22213" x1="147.575" y1="87.3825" x2="100.763" y2="135.96" gradientUnits="userSpaceOnUse">
<stop stop-color="#FFB088"/>
<stop offset="0.35" stop-color="#FFDA94"/>
<stop offset="0.54" stop-color="#FFBA81"/>
<stop offset="0.71" stop-color="#FFA283"/>
<stop offset="1" stop-color="#FF70B5"/>
</linearGradient>
<linearGradient id="paint7_linear_1837_22213" x1="147.575" y1="87.3824" x2="100.762" y2="135.96" gradientUnits="userSpaceOnUse">
<stop stop-color="#FFB088"/>
<stop offset="0.35" stop-color="#FFDA94"/>
<stop offset="0.54" stop-color="#FFBA81"/>
<stop offset="0.71" stop-color="#FFA283"/>
<stop offset="1" stop-color="#FF70B5"/>
</linearGradient>
<linearGradient id="paint8_linear_1837_22213" x1="137.318" y1="104.733" x2="225.011" y2="233.988" gradientUnits="userSpaceOnUse">
<stop stop-color="#FFE2AD"/>
<stop offset="0.32" stop-color="#FFB661"/>
<stop offset="1" stop-color="#FF70DB"/>
</linearGradient>
<clipPath id="clip0_1837_22213">
<rect width="200" height="200" fill="white"/>
</clipPath>
</defs>
</svg>
